<svg width="59" height="100" viewBox="0 0 59 100" fill="none" xmlns="http://www.w3.org/2000/svg">
<path d="M27.5706 94.8799C31.4312 90.2056 29.1356 86.2393 25.8081 80.4943L25.6995 80.3068C24.195 77.7086 23.6865 75.5814 23.9544 73.9048C24.2024 72.3528 25.1044 71.1752 26.4997 70.3548C27.8713 69.5485 29.696 69.1093 31.8216 69.0178C34.7535 68.8915 38.2912 69.4329 41.9921 70.588C45.0108 71.5302 48.0044 71.6416 50.4245 71.0926C51.9214 70.7531 53.1958 70.1592 54.1101 69.3535C55.023 68.5491 55.5834 67.528 55.6547 66.332C55.7737 64.3387 54.5596 61.8641 51.4223 59.0761C48.1586 56.1759 43.7676 53.0094 39.7613 50.1204C38.7075 49.3605 37.6821 48.621 36.4194 47.6947C34.2626 46.1125 32.894 44.7321 32.1723 43.5682C31.2781 42.1263 31.3279 40.9569 32.0879 40.0905C34.2181 37.6624 39.825 38.7006 43.3039 39.3447C43.7306 39.4237 44.1244 39.4967 44.3896 39.5421C48.5714 40.2583 51.716 40.2482 53.8432 39.7093C55.1263 39.3843 56.017 38.864 56.5179 38.1981C57.0302 37.5172 57.1594 36.6622 56.9072 35.686C56.4264 33.8254 54.5908 31.5778 51.4069 29.2573L50.8534 28.8541C44.2073 24.0149 35.526 17.6938 36.9281 12.8022C37.6105 10.4218 40.205 8.9337 42.9393 8.47154C44.0941 8.27637 45.2818 8.2642 46.3698 8.44499C47.4975 8.63233 48.517 9.02465 49.2902 9.63286C49.7728 10.0124 50.1559 10.4723 50.4038 11.0139C50.6218 9.52867 50.1181 8.30047 49.1102 7.33298C47.1095 5.41236 43.1232 4.47191 38.8356 4.55722C34.5003 4.64348 29.8828 5.78128 26.688 8.01772C22.7181 10.7968 20.9526 15.3018 24.6869 21.6408C24.723 21.7023 24.7368 21.7661 24.7311 21.8282C25.279 22.6214 25.8734 23.4433 26.497 24.3052C27.2731 25.3781 28.0907 26.5082 28.8035 27.5455C29.0021 27.8347 29.1597 28.1264 29.2784 28.4181C29.6963 29.4449 29.5915 30.4208 29.0722 31.2482C28.546 32.0866 27.6026 32.7615 26.3514 33.1753C26.0394 33.2785 25.7023 33.3663 25.3418 33.4369C23.9651 33.7065 21.8719 33.6935 19.5309 33.6788C17.0819 33.6635 14.3457 33.6464 12.0825 33.9571C12.0159 33.9859 11.9403 34.0063 11.8581 34.0158C10.7759 34.143 10.1101 34.4938 9.69809 34.8678C9.27732 35.2497 9.10815 35.6593 9.03487 35.8864C8.03081 38.9962 12.4289 41.6552 17.3442 44.6268C23.1254 48.122 29.5894 52.0299 29.4244 57.8077C29.2271 64.711 22.9757 65.2494 17.6192 65.7107C14.7056 65.9616 12.0866 66.1872 11.2325 67.4991C8.74941 71.3129 13.1889 74.5869 18.1253 78.2271C24.1526 82.6719 30.8814 87.6361 27.5706 94.8799ZM50.678 13.7029C53.0972 12.5038 54.506 11.2336 55.1098 9.98864C55.7545 8.65921 55.4767 7.33921 54.5367 6.1634C54.4513 6.05659 54.353 5.94332 54.2422 5.82393C52.0358 3.44591 48.5037 2.04961 44.5615 1.56473C40.2827 1.03848 35.5342 1.57801 31.4482 3.0943C29.0518 3.98362 26.885 5.20971 25.1779 6.75439C23.6117 8.17165 22.4325 9.85942 21.8188 11.8039C21.5796 12.5618 21.4675 13.2983 21.4637 14.0243C21.8126 11.2638 23.4584 9.06522 25.8151 7.41546C29.2424 5.01627 34.1772 3.79604 38.8018 3.70403C43.4742 3.61106 47.8559 4.67202 50.1085 6.83443C51.8483 8.50449 52.3166 10.8049 50.678 13.7029ZM7.77937 35.8881C7.31773 36.6438 7.28307 37.6613 7.85732 39.0298C9.25127 42.3518 13.196 46.0326 17.0101 49.5915C18.7468 51.212 20.4572 52.8079 21.8849 54.3236C24.6625 57.2726 23.6732 59.2136 20.604 60.4744C17.9119 61.5803 13.473 62.0551 8.71556 62.2095C7.33697 62.2543 6.17407 62.4943 5.2267 62.8896C4.09142 63.3632 3.25169 64.0717 2.71077 64.942C2.14809 65.8473 1.90517 66.9262 1.98446 68.1021C2.11157 69.9872 3.06279 72.1088 4.84822 74.1687C9.16672 79.1511 14.0229 81.7704 17.9833 83.9066C23.4876 86.8755 27.3705 88.9715 26.3346 94.6941C29.452 87.8291 23.0038 83.0718 17.2283 78.8126C11.9943 74.9529 7.28714 71.4816 10.1088 67.1478C11.249 65.3966 14.1937 65.143 17.4697 64.8608C22.3376 64.4416 28.0186 63.9523 28.1946 57.791C28.3481 52.4151 22.1117 48.6447 16.534 45.2726C11.4177 42.1794 6.83079 39.406 7.77937 35.8881ZM47.0974 69.1157C46.7578 69.1286 46.4674 68.9481 46.4488 68.7125C46.4301 68.477 46.6903 68.2754 47.0299 68.2625C48.2723 68.2131 49.3622 67.8942 50.1208 67.3608C50.8334 66.8598 51.2602 66.1623 51.2516 65.314C51.2503 65.0784 51.5245 64.8867 51.8641 64.8857C52.2036 64.8848 52.48 65.0751 52.4814 65.3107C52.4924 66.3993 51.9327 67.3029 50.9985 67.9597C50.0235 68.6452 48.648 69.054 47.0974 69.1157ZM27.6368 79.9857C32.1565 87.789 34.9018 92.5289 24.4444 99.7985C24.1918 99.9744 23.8094 100.048 23.4452 99.9671C22.9274 99.8518 22.6424 99.4671 22.8086 99.1079C26.8502 90.4242 22.937 88.3134 16.7719 84.9881C12.6858 82.7841 7.67555 80.0816 3.15838 74.87C1.2024 72.6133 0.158785 70.2658 0.0168326 68.161C-0.0764525 66.7776 0.21812 65.4943 0.897462 64.4013C1.59856 63.2733 2.70546 62.3473 4.21587 61.7171C5.43512 61.2084 6.90793 60.9003 8.63067 60.8444C13.1013 60.6993 17.2232 60.2733 19.6009 59.2966C21.6013 58.4749 22.191 57.1512 20.2336 55.0731C18.8013 53.5525 17.1277 51.9909 15.4283 50.4052C11.5118 46.7508 7.46125 42.9712 5.96688 39.4099C4.26698 35.3588 6.68686 33.5887 10.4963 32.8193C13.1965 32.2739 16.5734 32.2951 19.5463 32.3137C21.7329 32.3273 23.6879 32.3396 24.8094 32.1199C25.0487 32.073 25.2803 32.0122 25.5026 31.9387C26.3205 31.6682 26.9321 31.2352 27.2666 30.7021C27.608 30.1582 27.6698 29.4991 27.3802 28.7875C27.295 28.578 27.1759 28.3599 27.021 28.1344C26.1632 26.8859 25.432 25.8752 24.7377 24.9155C21.1142 19.9066 18.4177 16.1792 19.8897 11.5148C20.5683 9.36471 21.8749 7.496 23.6115 5.92459C25.4941 4.22113 27.8821 2.86956 30.5223 1.88978C34.9986 0.228644 40.2054 -0.361865 44.901 0.215659C49.3616 0.764282 53.3727 2.35992 55.9012 5.08514C56.0206 5.21383 56.1394 5.352 56.2574 5.49957C57.4603 7.00411 57.8114 8.70189 56.9771 10.4223C56.1689 12.0887 54.2463 13.7559 50.898 15.2514C50.4392 15.4562 49.9412 15.6625 49.4028 15.8696C49.16 15.9632 48.8618 15.985 48.5811 15.9125C48.0718 15.7809 47.8127 15.3878 48.0024 15.0345C49.186 12.8284 48.8629 11.3607 47.8164 10.5376C47.3224 10.149 46.6577 9.89611 45.9146 9.77265C45.1318 9.64259 44.2617 9.65395 43.4023 9.7992C41.3378 10.1481 39.3792 11.2703 38.8649 13.0645C37.6605 17.2664 45.9413 23.2959 52.2808 27.9119L52.8344 28.3151C56.2904 30.8339 58.2975 33.3307 58.8439 35.4451C59.1741 36.7229 58.9805 37.8745 58.2618 38.8299C57.5316 39.8004 56.2826 40.5462 54.5145 40.9941C52.038 41.6215 48.5031 41.6549 43.9189 40.8697C43.5236 40.802 43.1737 40.7372 42.7946 40.6671C39.8612 40.1239 35.1334 39.2485 33.7701 40.8025C33.3431 41.2892 33.3674 42.0307 33.9856 43.0276C34.6265 44.0611 35.8691 45.307 37.8469 46.7578C38.6983 47.3824 39.9219 48.2648 41.1811 49.1728C45.2144 52.0814 49.635 55.2692 52.9732 58.2357C56.4266 61.3045 57.7592 64.0935 57.6224 66.3856C57.5327 67.8877 56.8211 69.1771 55.661 70.1994C54.5023 71.2205 52.9025 71.9697 51.0341 72.3935C48.1707 73.043 44.6697 72.924 41.1819 71.8354C37.7716 70.7709 34.5563 70.2702 31.9374 70.3829C30.2379 70.4561 28.8084 70.7899 27.7729 71.3988C26.7612 71.9935 26.1031 72.8732 25.9143 74.0547C25.6805 75.5176 26.1522 77.4219 27.5283 79.7982L27.6368 79.9857Z" fill="#E54617"/>
</svg>
